<mxfile host="65bd71144e" pages="2">
    <diagram id="bz7_D2iQieTXkZ2twOwL" name="tstunnel">
        <mxGraphModel dx="911" dy="482" grid="1" gridSize="10" guides="1" tooltips="1" connect="1" arrows="1" fold="1" page="1" pageScale="1" pageWidth="850" pageHeight="1100" math="0" shadow="0">
            <root>
                <mxCell id="MlLrarNW-lescGbX6ibL-0"/>
                <mxCell id="MlLrarNW-lescGbX6ibL-1" parent="MlLrarNW-lescGbX6ibL-0"/>
                <mxCell id="MlLrarNW-lescGbX6ibL-15" style="edgeStyle=orthogonalEdgeStyle;rounded=0;orthogonalLoop=1;jettySize=auto;html=1;startArrow=openAsync;startFill=0;" parent="MlLrarNW-lescGbX6ibL-1" source="MlLrarNW-lescGbX6ibL-6" target="MlLrarNW-lescGbX6ibL-14" edge="1">
                    <mxGeometry relative="1" as="geometry"/>
                </mxCell>
                <mxCell id="MlLrarNW-lescGbX6ibL-6" value="websocket&lt;br&gt;tunnel&lt;br&gt;client" style="rounded=1;whiteSpace=wrap;html=1;" parent="MlLrarNW-lescGbX6ibL-1" vertex="1">
                    <mxGeometry x="190" y="330" width="120" height="60" as="geometry"/>
                </mxCell>
                <mxCell id="MlLrarNW-lescGbX6ibL-7" value="websocket&lt;br&gt;tunnel&lt;br&gt;server" style="rounded=1;whiteSpace=wrap;html=1;" parent="MlLrarNW-lescGbX6ibL-1" vertex="1">
                    <mxGeometry x="430" y="330" width="120" height="60" as="geometry"/>
                </mxCell>
                <mxCell id="MlLrarNW-lescGbX6ibL-10" value="" style="aspect=fixed;perimeter=ellipsePerimeter;html=1;align=center;shadow=0;dashed=0;spacingTop=3;image;image=img/lib/active_directory/tunnel.svg;" parent="MlLrarNW-lescGbX6ibL-1" vertex="1">
                    <mxGeometry x="310" y="348" width="120" height="24" as="geometry"/>
                </mxCell>
                <mxCell id="MlLrarNW-lescGbX6ibL-13" value="WebSocket" style="text;html=1;strokeColor=none;fillColor=none;align=center;verticalAlign=middle;whiteSpace=wrap;rounded=0;" parent="MlLrarNW-lescGbX6ibL-1" vertex="1">
                    <mxGeometry x="350" y="320" width="40" height="20" as="geometry"/>
                </mxCell>
                <mxCell id="MlLrarNW-lescGbX6ibL-14" value="" style="aspect=fixed;html=1;points=[];align=center;image;fontSize=12;image=img/lib/azure2/general/Browser.svg;" parent="MlLrarNW-lescGbX6ibL-1" vertex="1">
                    <mxGeometry x="40" y="360" width="82.5" height="66" as="geometry"/>
                </mxCell>
                <mxCell id="MlLrarNW-lescGbX6ibL-16" value="SUT" style="text;html=1;strokeColor=none;fillColor=none;align=center;verticalAlign=middle;whiteSpace=wrap;rounded=0;" parent="MlLrarNW-lescGbX6ibL-1" vertex="1">
                    <mxGeometry x="61.25" y="430" width="40" height="20" as="geometry"/>
                </mxCell>
                <mxCell id="MlLrarNW-lescGbX6ibL-18" style="edgeStyle=orthogonalEdgeStyle;rounded=0;orthogonalLoop=1;jettySize=auto;html=1;entryX=1;entryY=0.5;entryDx=0;entryDy=0;startArrow=openAsync;startFill=0;" parent="MlLrarNW-lescGbX6ibL-1" source="MlLrarNW-lescGbX6ibL-17" target="MlLrarNW-lescGbX6ibL-7" edge="1">
                    <mxGeometry relative="1" as="geometry"/>
                </mxCell>
                <mxCell id="MlLrarNW-lescGbX6ibL-17" value="" style="ellipse;shape=cloud;whiteSpace=wrap;html=1;" parent="MlLrarNW-lescGbX6ibL-1" vertex="1">
                    <mxGeometry x="620" y="290" width="100" height="70" as="geometry"/>
                </mxCell>
                <mxCell id="MlLrarNW-lescGbX6ibL-19" value="Test execution&lt;br&gt;system" style="text;html=1;strokeColor=none;fillColor=none;align=center;verticalAlign=middle;whiteSpace=wrap;rounded=0;" parent="MlLrarNW-lescGbX6ibL-1" vertex="1">
                    <mxGeometry x="630" y="360" width="80" height="40" as="geometry"/>
                </mxCell>
                <mxCell id="0" value="node ./bin/wstt.js -s 0.0.0.0:3330 -t example.com:80" style="text;whiteSpace=wrap;html=1;" vertex="1" parent="MlLrarNW-lescGbX6ibL-1">
                    <mxGeometry x="400" y="650" width="300" height="30" as="geometry"/>
                </mxCell>
                <mxCell id="1" value="websocket&lt;br&gt;tunnel&lt;br&gt;client" style="rounded=1;whiteSpace=wrap;html=1;" vertex="1" parent="MlLrarNW-lescGbX6ibL-1">
                    <mxGeometry x="190" y="560" width="120" height="60" as="geometry"/>
                </mxCell>
                <mxCell id="9" style="edgeStyle=orthogonalEdgeStyle;rounded=0;orthogonalLoop=1;jettySize=auto;html=1;" edge="1" parent="MlLrarNW-lescGbX6ibL-1" source="2" target="6">
                    <mxGeometry relative="1" as="geometry"/>
                </mxCell>
                <mxCell id="2" value="websocket&lt;br&gt;tunnel&lt;br&gt;server" style="rounded=1;whiteSpace=wrap;html=1;" vertex="1" parent="MlLrarNW-lescGbX6ibL-1">
                    <mxGeometry x="430" y="560" width="120" height="60" as="geometry"/>
                </mxCell>
                <mxCell id="3" value="" style="aspect=fixed;perimeter=ellipsePerimeter;html=1;align=center;shadow=0;dashed=0;spacingTop=3;image;image=img/lib/active_directory/tunnel.svg;" vertex="1" parent="MlLrarNW-lescGbX6ibL-1">
                    <mxGeometry x="310" y="578" width="120" height="24" as="geometry"/>
                </mxCell>
                <mxCell id="4" value="WebSocket" style="text;html=1;strokeColor=none;fillColor=none;align=center;verticalAlign=middle;whiteSpace=wrap;rounded=0;" vertex="1" parent="MlLrarNW-lescGbX6ibL-1">
                    <mxGeometry x="350" y="550" width="40" height="20" as="geometry"/>
                </mxCell>
                <mxCell id="6" value="" style="aspect=fixed;html=1;points=[];align=center;image;fontSize=12;image=img/lib/azure2/general/Browser.svg;" vertex="1" parent="MlLrarNW-lescGbX6ibL-1">
                    <mxGeometry x="627.5" y="536" width="82.5" height="66" as="geometry"/>
                </mxCell>
                <mxCell id="7" value="example.com" style="text;html=1;strokeColor=none;fillColor=none;align=center;verticalAlign=middle;whiteSpace=wrap;rounded=0;" vertex="1" parent="MlLrarNW-lescGbX6ibL-1">
                    <mxGeometry x="648.75" y="610" width="40" height="20" as="geometry"/>
                </mxCell>
                <mxCell id="10" value="node ./bin/wstt.js -t 3331 ws://0.0.0.0:3330" style="text;whiteSpace=wrap;html=1;" vertex="1" parent="MlLrarNW-lescGbX6ibL-1">
                    <mxGeometry x="130" y="630" width="250" height="30" as="geometry"/>
                </mxCell>
                <mxCell id="12" style="edgeStyle=orthogonalEdgeStyle;rounded=0;orthogonalLoop=1;jettySize=auto;html=1;" edge="1" parent="MlLrarNW-lescGbX6ibL-1" source="11" target="1">
                    <mxGeometry relative="1" as="geometry"/>
                </mxCell>
                <mxCell id="11" value="curl http://0.0.0.0:3331" style="text;whiteSpace=wrap;html=1;" vertex="1" parent="MlLrarNW-lescGbX6ibL-1">
                    <mxGeometry x="11.25" y="590" width="140" height="30" as="geometry"/>
                </mxCell>
            </root>
        </mxGraphModel>
    </diagram>
    <diagram id="Rbo98qxWneqkgl-W0b_I" name="Overview">
        <mxGraphModel dx="1207" dy="1183" grid="1" gridSize="10" guides="1" tooltips="1" connect="1" arrows="1" fold="1" page="1" pageScale="1" pageWidth="850" pageHeight="1100" math="0" shadow="0">
            <root>
                <mxCell id="0"/>
                <mxCell id="1" parent="0"/>
                <mxCell id="7" value="" style="whiteSpace=wrap;html=1;aspect=fixed;" parent="1" vertex="1">
                    <mxGeometry x="60" y="450" width="310" height="310" as="geometry"/>
                </mxCell>
                <mxCell id="24" style="edgeStyle=orthogonalEdgeStyle;rounded=0;orthogonalLoop=1;jettySize=auto;html=1;" parent="1" source="16" target="22" edge="1">
                    <mxGeometry relative="1" as="geometry"/>
                </mxCell>
                <mxCell id="16" value="" style="rounded=1;whiteSpace=wrap;html=1;" parent="1" vertex="1">
                    <mxGeometry x="80" y="530" width="130" height="100" as="geometry"/>
                </mxCell>
                <mxCell id="4" value="" style="whiteSpace=wrap;html=1;aspect=fixed;" parent="1" vertex="1">
                    <mxGeometry x="480" y="450" width="310" height="310" as="geometry"/>
                </mxCell>
                <mxCell id="2" value="" style="aspect=fixed;html=1;points=[];align=center;image;fontSize=12;image=img/lib/mscae/Docker.svg;" parent="1" vertex="1">
                    <mxGeometry x="180" y="430" width="50" height="41" as="geometry"/>
                </mxCell>
                <mxCell id="3" value="" style="aspect=fixed;html=1;points=[];align=center;image;fontSize=12;image=img/lib/mscae/Docker.svg;" parent="1" vertex="1">
                    <mxGeometry x="590" y="430" width="50" height="41" as="geometry"/>
                </mxCell>
                <mxCell id="6" value="Private" style="text;html=1;strokeColor=none;fillColor=none;align=center;verticalAlign=middle;whiteSpace=wrap;rounded=0;" parent="1" vertex="1">
                    <mxGeometry x="490" y="460" width="40" height="20" as="geometry"/>
                </mxCell>
                <mxCell id="8" value="Cloud" style="text;html=1;strokeColor=none;fillColor=none;align=center;verticalAlign=middle;whiteSpace=wrap;rounded=0;" parent="1" vertex="1">
                    <mxGeometry x="70" y="460" width="40" height="20" as="geometry"/>
                </mxCell>
                <mxCell id="9" value="" style="aspect=fixed;perimeter=ellipsePerimeter;html=1;align=center;shadow=0;dashed=0;spacingTop=3;image;image=img/lib/active_directory/tunnel.svg;" parent="1" vertex="1">
                    <mxGeometry x="360" y="570" width="130" height="26" as="geometry"/>
                </mxCell>
                <mxCell id="10" value="User" style="shape=umlActor;verticalLabelPosition=bottom;verticalAlign=top;html=1;outlineConnect=0;" parent="1" vertex="1">
                    <mxGeometry x="80" y="800" width="30" height="60" as="geometry"/>
                </mxCell>
                <mxCell id="11" value="" style="aspect=fixed;html=1;points=[];align=center;image;fontSize=12;image=img/lib/azure2/general/Files.svg;" parent="1" vertex="1">
                    <mxGeometry x="90" y="660" width="64" height="70" as="geometry"/>
                </mxCell>
                <mxCell id="12" value="Test Scripts" style="text;html=1;strokeColor=none;fillColor=none;align=center;verticalAlign=middle;whiteSpace=wrap;rounded=0;" parent="1" vertex="1">
                    <mxGeometry x="77" y="730" width="90" height="20" as="geometry"/>
                </mxCell>
                <mxCell id="13" value="" style="aspect=fixed;perimeter=ellipsePerimeter;html=1;align=center;shadow=0;dashed=0;spacingTop=3;image;image=img/lib/active_directory/generic_server.svg;" parent="1" vertex="1">
                    <mxGeometry x="108" y="546" width="28.000000000000004" height="50" as="geometry"/>
                </mxCell>
                <mxCell id="14" value="" style="aspect=fixed;perimeter=ellipsePerimeter;html=1;align=center;shadow=0;dashed=0;spacingTop=3;image;image=img/lib/active_directory/server_farm.svg;" parent="1" vertex="1">
                    <mxGeometry x="150" y="570" width="50" height="50" as="geometry"/>
                </mxCell>
                <mxCell id="17" value="Selenium" style="text;html=1;strokeColor=none;fillColor=none;align=center;verticalAlign=middle;whiteSpace=wrap;rounded=0;" parent="1" vertex="1">
                    <mxGeometry x="96" y="530" width="40" height="20" as="geometry"/>
                </mxCell>
                <mxCell id="27" style="edgeStyle=orthogonalEdgeStyle;rounded=0;orthogonalLoop=1;jettySize=auto;html=1;" parent="1" source="18" target="20" edge="1">
                    <mxGeometry relative="1" as="geometry"/>
                </mxCell>
                <mxCell id="18" value="" style="shadow=0;dashed=0;html=1;labelPosition=center;verticalLabelPosition=bottom;verticalAlign=top;align=center;outlineConnect=0;shape=mxgraph.veeam.3d.proxy;" parent="1" vertex="1">
                    <mxGeometry x="510" y="563" width="46" height="46" as="geometry"/>
                </mxCell>
                <mxCell id="19" value="Proxy" style="text;html=1;strokeColor=none;fillColor=none;align=center;verticalAlign=middle;whiteSpace=wrap;rounded=0;" parent="1" vertex="1">
                    <mxGeometry x="510" y="540" width="40" height="20" as="geometry"/>
                </mxCell>
                <mxCell id="20" value="" style="aspect=fixed;html=1;points=[];align=center;image;fontSize=12;image=img/lib/azure2/general/Browser.svg;" parent="1" vertex="1">
                    <mxGeometry x="650" y="544" width="90" height="72" as="geometry"/>
                </mxCell>
                <mxCell id="21" value="SUT" style="text;html=1;strokeColor=none;fillColor=none;align=center;verticalAlign=middle;whiteSpace=wrap;rounded=0;" parent="1" vertex="1">
                    <mxGeometry x="675" y="520" width="40" height="20" as="geometry"/>
                </mxCell>
                <mxCell id="26" style="edgeStyle=orthogonalEdgeStyle;rounded=0;orthogonalLoop=1;jettySize=auto;html=1;dashed=1;startArrow=classic;startFill=1;" parent="1" source="22" target="18" edge="1">
                    <mxGeometry relative="1" as="geometry"/>
                </mxCell>
                <mxCell id="22" value="" style="rounded=1;whiteSpace=wrap;html=1;shadow=0;" parent="1" vertex="1">
                    <mxGeometry x="240" y="556" width="100" height="60" as="geometry"/>
                </mxCell>
                <mxCell id="23" value="(something...)" style="text;html=1;strokeColor=none;fillColor=none;align=center;verticalAlign=middle;whiteSpace=wrap;rounded=0;" parent="1" vertex="1">
                    <mxGeometry x="260" y="560" width="40" height="20" as="geometry"/>
                </mxCell>
            </root>
        </mxGraphModel>
    </diagram>
</mxfile>